<?xml version="1.0" standalone="no"?>
<!DOCTYPE svg PUBLIC "-//W3C//DTD SVG 20010904//EN"
 "http://www.w3.org/TR/2001/REC-SVG-20010904/DTD/svg10.dtd">
<svg version="1.0" xmlns="http://www.w3.org/2000/svg"
 width="2000.000000pt" height="2000.000000pt" viewBox="0 0 2000.000000 2000.000000"
 preserveAspectRatio="xMidYMid meet">
<metadata>
Created by potrace 1.11, written by Peter Selinger 2001-2013
</metadata>
<g transform="translate(0.000000,2000.000000) scale(0.100000,-0.100000)"
fill="#000000" stroke="none">
<path d="M12358 13520 c-150 -27 -268 -89 -378 -200 -88 -87 -151 -189 -181
-287 l-12 -43 -659 0 -658 0 0 -165 0 -165 658 0 657 0 27 -78 c15 -42 46
-105 69 -139 l40 -63 -568 -841 c-312 -463 -570 -846 -574 -850 -3 -5 -39 -2
-80 7 -176 38 -400 -13 -543 -122 -27 -20 -55 -34 -64 -31 -18 4 -1140 682
-1157 698 -5 5 115 9 298 9 l307 0 0 165 0 165 -305 0 c-282 0 -306 1 -311 18
-76 242 -237 409 -469 488 -71 24 -95 27 -210 27 -113 0 -140 -3 -207 -25
-120 -40 -204 -92 -293 -182 -82 -83 -147 -188 -176 -283 l-12 -43 -1014 0
-1013 0 0 -165 0 -165 1013 0 1014 0 13 -42 c7 -24 21 -61 32 -82 l20 -39
-1639 -1639 c-1179 -1179 -1642 -1636 -1653 -1631 -8 3 -53 20 -99 36 -173 59
-353 46 -531 -40 -162 -78 -298 -236 -355 -410 l-17 -53 -659 0 -659 0 0 -165
0 -165 659 0 658 0 21 -60 c34 -101 91 -190 171 -271 85 -85 173 -139 289
-177 109 -35 281 -37 399 -3 212 60 397 233 469 439 l23 67 306 3 305 2 0 165
0 165 -305 2 -306 3 -23 65 c-13 36 -26 72 -30 80 -4 11 475 496 1632 1653
l1638 1638 56 -25 c137 -61 326 -71 473 -25 86 26 132 49 210 104 l60 42 561
-341 c309 -188 572 -349 585 -358 23 -16 9 -17 -283 -17 l-308 -1 0 -165 0
-165 309 0 309 0 6 -35 c10 -54 80 -184 133 -247 290 -346 812 -340 1095 14
50 62 111 180 123 236 l7 32 1014 0 1014 0 0 165 0 165 -1014 0 -1014 0 -7 33
c-11 48 -49 130 -90 191 l-36 54 572 849 c315 466 573 849 574 850 1 2 35 -4
76 -13 128 -28 322 -4 433 53 l29 15 1638 -1638 c1619 -1619 1637 -1638 1624
-1663 -7 -14 -21 -52 -31 -83 l-18 -58 -658 0 -658 0 0 -165 0 -165 658 0 658
0 18 -57 c31 -101 83 -183 176 -275 73 -72 103 -94 181 -132 203 -98 415 -100
615 -5 88 42 193 126 249 201 53 69 111 184 121 235 l6 33 309 0 309 0 0 165
0 165 -307 2 -306 3 -17 50 c-94 275 -337 463 -625 482 -105 7 -223 -13 -313
-53 l-56 -25 -1640 1640 -1639 1639 26 64 c14 34 28 71 31 81 5 16 62 17 1016
17 l1010 0 0 165 0 165 -1012 2 -1011 3 -18 52 c-75 222 -260 397 -484 458
-71 19 -231 27 -297 15z m2279 -2752 c887 -887 1613 -1617 1613 -1622 0 -5
-21 -31 -47 -58 l-48 -48 -1617 1617 -1617 1617 47 52 c26 29 49 52 52 53 3 1
731 -725 1617 -1611z m-2559 1475 c31 -21 58 -38 60 -39 3 -2 -1092 -1629
-1108 -1647 -9 -10 -120 61 -120 75 0 9 1102 1648 1108 1648 1 0 28 -17 60
-37z m-2636 -1468 c304 -185 553 -341 553 -348 0 -14 -57 -117 -65 -117 -5 0
-1110 667 -1119 675 -3 4 68 125 74 125 2 0 252 -151 557 -335z m-3259 -1527
l-1618 -1618 -53 52 -52 53 1617 1617 1618 1618 53 -52 52 -53 -1617 -1617z"/>
</g>
</svg>
